<?xml version="1.0" standalone="no"?>
<!DOCTYPE svg PUBLIC "-//W3C//DTD SVG 20010904//EN"
 "http://www.w3.org/TR/2001/REC-SVG-20010904/DTD/svg10.dtd">
<svg version="1.0" xmlns="http://www.w3.org/2000/svg"
 width="100.000000pt" height="100.000000pt" viewBox="0 0 100.000000 100.000000"
 preserveAspectRatio="xMidYMid meet">
<metadata>
Created by potrace 1.16, written by Peter Selinger 2001-2019
</metadata>
<g transform="translate(0.000000,100.000000) scale(0.100000,-0.100000)"
fill="#000000" stroke="none">
<path d="M285 849 c-103 -33 -185 -66 -192 -76 -10 -12 -13 -81 -13 -260 0
-222 2 -245 18 -261 10 -10 105 -53 211 -95 l192 -77 197 80 c108 44 203 88
210 97 17 24 17 492 0 516 -15 20 -375 138 -416 136 -15 -1 -108 -27 -207 -60z
m175 -237 l0 -199 -39 -15 -40 -16 -3 138 c-2 76 -6 142 -10 146 -9 8 -86 -13
-105 -28 -9 -8 -13 -52 -13 -159 0 -82 -2 -149 -4 -149 -2 0 -20 -7 -40 -15
l-36 -15 2 212 3 212 130 43 c72 23 136 42 143 42 9 1 12 -45 12 -197z m253
149 l112 -38 3 -211 2 -212 -52 21 c-29 11 -95 37 -145 56 l-93 36 0 199 0
200 31 -7 c16 -4 81 -24 142 -44z"/>
<path d="M627 648 c-10 -34 -8 -93 2 -121 11 -29 95 -67 112 -50 5 5 9 43 7
84 -3 69 -5 75 -29 86 -15 7 -40 16 -57 19 -25 5 -30 2 -35 -18z"/>
</g>
</svg>
