<?xml version="1.0" encoding="UTF-8"?>

<!-- Uploaded to: SVG Repo, www.svgrepo.com, Generator: SVG Repo Mixer Tools -->
<svg width="800px" height="800px" viewBox="0 0 48 48" id="b" xmlns="http://www.w3.org/2000/svg">

<defs>

<style>.c{fill:none;stroke:#000000;stroke-linecap:round;stroke-linejoin:round;}</style>

</defs>

<circle class="c" cx="24" cy="24" r="21.5"/>

<g>

<g>

<path class="c" d="m26.6511,22.3638c0-2.7805,2.254-5.0345,5.0345-5.0345h0c2.7805,0,5.0345,2.254,5.0345,5.0345v3.2724c0,2.7805-2.254,5.0345-5.0345,5.0345h0c-2.7805,0-5.0345-2.254-5.0345-5.0345"/>

<line class="c" x1="26.6511" y1="30.6707" x2="26.6511" y2="10.5327"/>

</g>

<g>

<path class="c" d="m21.3489,25.6362c0,2.7805-2.254,5.0345-5.0345,5.0345h0c-2.7805,0-5.0345-2.254-5.0345-5.0345v-3.2724c0-2.7805,2.254-5.0345,5.0345-5.0345h0c2.7805,0,5.0345,2.254,5.0345,5.0345"/>

<line class="c" x1="21.3489" y1="17.3293" x2="21.3489" y2="37.4673"/>

</g>

</g>

</svg>